PathFileType	4	(X/Y/Z)	Walk8.trc
DataRate	CameraRate	NumFrames	NumMarkers	Units	OrigDataRate	OrigDataStartFrame	OrigNumFrames
200.000000	200.000000	6	61	mm	200.000000	629	754
Frame#	Times		RCAR		LUA1		LCAR		LFA1		LWRU		RTB3		RFHD		LElbow		RToe		LTH3		RTH2		RMT5		LWRR		LElbowM		RTB2		RMT1		LFHD		RPSI		STRN		RLFC		C7		RTH1		LTH4		RFA1		LTH2		T10		LLFC		RLMAL		LASI		CLAV		LPSI		RUA1		RBack		RTH3		RElbowM		LACR1		LCAL		RElbow		LMFC		LTB1		RWRR		RTH4		LTB2		LMT5		RTB4		RACR1		RMFC		LTB3		RMMAL		LTB4		LLMAL		LToe		RBHD		RWRU		RTB1		LTH1		LMMAL		LBHD		RCAL		LMT1		RASI
			X1	Y1	Z1	X2	Y2	Z2	X3	Y3	Z3	X4	Y4	Z4	X5	Y5	Z5	X6	Y6	Z6	X7	Y7	Z7	X8	Y8	Z8	X9	Y9	Z9	X10	Y10	Z10	X11	Y11	Z11	X12	Y12	Z12	X13	Y13	Z13	X14	Y14	Z14	X15	Y15	Z15	X16	Y16	Z16	X17	Y17	Z17	X18	Y18	Z18	X19	Y19	Z19	X20	Y20	Z20	X21	Y21	Z21	X22	Y22	Z22	X23	Y23	Z23	X24	Y24	Z24	X25	Y25	Z25	X26	Y26	Z26	X27	Y27	Z27	X28	Y28	Z28	X29	Y29	Z29	X30	Y30	Z30	X31	Y31	Z31	X32	Y32	Z32	X33	Y33	Z33	X34	Y34	Z34	X35	Y35	Z35	X36	Y36	Z36	X37	Y37	Z37	X38	Y38	Z38	X39	Y39	Z39	X40	Y40	Z40	X41	Y41	Z41	X42	Y42	Z42	X43	Y43	Z43	X44	Y44	Z44	X45	Y45	Z45	X46	Y46	Z46	X47	Y47	Z47	X48	Y48	Z48	X49	Y49	Z49	X50	Y50	Z50	X51	Y51	Z51	X52	Y52	Z52	X53	Y53	Z53	X54	Y54	Z54	X55	Y55	Z55	X56	Y56	Z56	X57	Y57	Z57	X58	Y58	Z58	X59	Y59	Z59	X60	Y60	Z60	X61	Y61	Z61

629	3.145	589.93	941.29	401.77	207.21	1317.9	-205.25	212.76	831.23	-225.28	139.75	1019.1	-233.43	151.32	884.85	-220.88	128.34	191.31	115.22	258.06	1643.5	-4.056	145.22	1172.2	-226.69	245.94	30.103	131.86	353.08	611.57	-131.71	305.95	692.91	198.18	140.18	24.578	186.93	223.39	887.68	-177.07	116.84	1170	-153.44	132.14	277.64	188.1	192.71	39.233	109.61	269.48	1647.3	137.65	125.78	1029.4	95.395	413.49	1252.5	39.985	173.73	501.6	206.53	236.65	1512.8	66.111	261.93	800.5	234.98	329.45	700.77	-142.74	425.79	1027	409.23	394.41	721.16	-119.03	129.86	1291.1	56.952	376.07	517.79	-117.63	51.111	80.096	150.84	330.86	1034.5	-89.812	365.52	1425.4	53.895	121.4	1021.7	18.294	322.6	1298.3	328.4	167.32	1417.2	197.9	213.43	617.08	214.91	301.01	1113.3	318.62	294.05	1478	-110.21	467.39	25.538	-45.248	328.55	1147.9	388.95	404.26	523.83	12.801	472.82	404.45	-59.066	562.06	966.94	345.85	240.51	706.85	228.07	453.02	311.05	-125.6	609.11	53.786	-140.52	161.93	277.85	124.1	320.14	1456.3	215.99	188.48	514.49	74.979	511.1	222.14	-63.748	92.203	100.08	74.23	491.75	316.48	-60.258	498.91	81.48	-100.23	695.2	102.05	-95.561	438.54	1685.3	25.361	521.71	930.44	403.08	193.63	364.99	135.47	307.57	791.67	-148.59	533.75	113.69	-26.519	443.78	1686.2	101.72	-4.7092	48.323	97.285	655.66	85.964	-69.778	342.2	1036.3	196.04
630	3.15	596.15	942.1	401.43	212.18	1317.2	-205.75	215.88	830.27	-225.24	143.83	1018.5	-233.67	154.76	884.29	-221.07	129.18	191.42	115.13	263.15	1642.7	-4.6029	149.94	1171.6	-227.02	246.02	30.046	131.85	357.16	610.16	-131.44	309.53	692.21	198.15	140.18	24.578	186.88	226.86	886.78	-177.17	121.47	1169.6	-153.77	133.45	277.76	188	192.8	39.158	109.65	274.5	1646.5	137.12	130.89	1028.7	94.623	418.61	1251.8	39.657	176.18	501.59	206.27	241.74	1512	65.509	265.98	800.01	234.61	333.8	699.41	-142.63	431.58	1026.8	408.87	398.82	719.65	-118.98	134.96	1290.3	56.183	381.12	516.92	-117.1	51.32	80.6	150.79	336.38	1033.7	-90.02	370.67	1424.7	53.403	126.66	1020.9	17.552	327.58	1297.7	327.97	172.26	1416.4	197.21	216.51	616.89	214.64	306.39	1112.6	318.29	299.29	1477.3	-110.8	478.36	25.459	-45.63	333.74	1147.3	388.62	408.61	523.03	13.64	479.22	404.57	-58.201	568.2	967.57	345.47	244.06	706.54	227.76	461.16	311.1	-125.18	620.83	55.642	-139.42	163.26	277.78	123.99	325.1	1455.5	215.49	191.27	514.3	74.763	519.84	222.73	-63.091	92.57	100.35	74.177	499.27	316.83	-59.495	509.81	82.004	-100.09	705.87	104.76	-93.282	443.62	1684.7	24.915	528.05	930.63	402.48	195.44	364.76	135.39	312.17	790.35	-148.67	543.52	114.42	-25.98	448.82	1685.5	101.28	-4.5885	49.052	97.263	666.28	87.987	-68.092	347.14	1035.8	196.44
631	3.155	602.24	942.81	401.07	217.2	1316.5	-206.29	219.14	829.28	-225.26	148.01	1017.9	-233.96	158.33	883.69	-221.31	130.06	191.55	115.03	268.25	1641.9	-5.1939	154.74	1171	-227.38	246.11	29.988	131.84	361.49	608.86	-131.17	313.18	691.51	198.11	140.18	24.582	186.83	230.46	885.85	-177.33	126.16	1169.1	-154.16	134.82	277.88	187.89	192.89	39.085	109.69	279.54	1645.7	136.54	136.03	1028	93.835	423.74	1251.1	39.312	178.71	501.57	206	246.84	1511.3	64.865	270.06	799.52	234.24	338.32	698.13	-142.6	437.27	1026.6	408.46	403.38	718.28	-119.01	140.07	1289.5	55.393	386.34	516.1	-116.61	51.545	81.134	150.76	341.93	1032.9	-90.235	375.83	1424	52.871	131.95	1020.1	16.79	332.55	1297.1	327.5	177.22	1415.7	196.48	219.66	616.69	214.37	311.71	1111.8	317.91	304.54	1476.5	-111.44	488.64	25.353	-45.876	338.88	1146.7	388.25	413.16	522.31	14.392	485.57	404.62	-57.332	574.21	968.1	345.07	247.67	706.22	227.44	469.08	311.11	-124.72	631.86	57.3	-138.21	164.64	277.71	123.88	330.08	1454.8	214.95	194.16	514.1	74.544	528.2	223.2	-62.36	92.954	100.65	74.131	506.57	317.09	-58.693	520.09	82.452	-99.827	715.91	107.16	-90.892	448.71	1684	24.417	534.25	930.73	401.82	197.33	364.53	135.29	316.87	789.1	-148.84	552.71	115.03	-25.331	453.87	1684.8	100.79	-4.4574	49.826	97.248	676.24	89.739	-66.305	352.04	1035.2	196.91
632	3.16	608.19	943.41	400.69	222.26	1315.7	-206.87	222.52	828.28	-225.34	152.3	1017.3	-234.29	162.01	883.04	-221.6	130.97	191.7	114.94	273.36	1641.2	-5.8291	159.61	1170.3	-227.79	246.19	29.931	131.84	366.09	607.67	-130.92	316.88	690.82	198.07	140.19	24.588	186.79	234.17	884.9	-177.53	130.92	1168.6	-154.59	136.24	278.01	187.79	192.99	39.018	109.73	284.6	1644.9	135.92	141.2	1027.3	93.032	428.88	1250.4	38.948	181.33	501.54	205.71	251.95	1510.5	64.177	274.2	799.04	233.87	343.04	696.95	-142.65	442.85	1026.3	408.02	408.13	717.07	-119.11	145.19	1288.8	54.585	391.73	515.32	-116.17	51.785	81.698	150.73	347.51	1032.1	-90.461	381.01	1423.2	52.3	137.26	1019.3	16.01	337.51	1296.4	326.99	182.2	1415	195.72	222.89	616.48	214.09	316.97	1111.1	317.48	309.8	1475.8	-112.11	498.23	25.205	-45.97	343.96	1146.1	387.83	417.89	521.68	15.058	491.85	404.58	-56.465	580.1	968.54	344.65	251.34	705.89	227.11	476.76	311.05	-124.21	642.17	58.716	-136.89	166.08	277.64	123.77	335.07	1454.1	214.37	197.15	513.88	74.326	536.17	223.55	-61.56	93.357	100.97	74.095	513.65	317.25	-57.856	529.73	82.793	-99.433	725.29	109.23	-88.433	453.8	1683.3	23.866	540.32	930.74	401.11	199.28	364.29	135.19	321.7	787.92	-149.1	561.33	115.49	-24.572	458.94	1684.1	100.24	-4.3165	50.648	97.242	685.55	91.188	-64.442	356.9	1034.7	197.42
633	3.165	613.99	943.91	400.28	227.37	1314.9	-207.48	226.05	827.27	-225.48	156.69	1016.6	-234.68	165.82	882.36	-221.94	131.93	191.85	114.86	278.47	1640.5	-6.5089	164.56	1169.6	-228.25	246.28	29.874	131.85	370.99	606.62	-130.68	320.65	690.12	198.02	140.2	24.597	186.76	238.01	883.92	-177.78	135.75	1168.1	-155.08	137.72	278.16	187.69	193.09	38.959	109.77	289.66	1644.1	135.25	146.41	1026.6	92.215	434.02	1249.7	38.565	184.03	501.5	205.42	257.07	1509.7	63.445	278.38	798.55	233.51	347.97	695.87	-142.77	448.33	1026	407.53	413.07	716.02	-119.27	150.33	1288	53.759	397.29	514.59	-115.77	52.045	82.297	150.72	353.13	1031.3	-90.698	386.21	1422.5	51.69	142.6	1018.5	15.213	342.46	1295.8	326.43	187.19	1414.3	194.92	226.2	616.27	213.81	322.17	1110.4	317	315.06	1475	-112.82	507.11	25.005	-45.902	349	1145.5	387.35	422.83	521.12	15.641	498.09	404.45	-55.606	585.87	968.88	344.2	255.09	705.56	226.78	484.19	310.91	-123.65	651.75	59.853	-135.47	167.56	277.56	123.66	340.08	1453.4	213.75	200.24	513.65	74.109	543.77	223.74	-60.694	93.778	101.32	74.072	520.53	317.28	-56.989	538.71	83.007	-98.908	734.02	110.91	-85.949	458.89	1682.6	23.261	546.24	930.67	400.38	201.3	364.04	135.08	326.68	786.84	-149.45	569.39	115.79	-23.71	464.01	1683.4	99.644	-4.1661	51.523	97.246	694.21	92.307	-62.528	361.72	1034.1	197.96
634	3.17	619.66	944.29	399.84	232.52	1314.1	-208.12	229.72	826.24	-225.67	161.19	1015.9	-235.12	169.76	881.64	-222.33	132.92	192.02	114.79	283.59	1639.7	-7.2336	169.6	1168.8	-228.75	246.38	29.818	131.86	376.19	605.71	-130.47	324.49	689.43	197.98	140.21	24.609	186.73	241.96	882.93	-178.08	140.64	1167.5	-155.62	139.26	278.33	187.6	193.18	38.91	109.81	294.74	1643.4	134.54	151.65	1025.8	91.388	439.18	1249	38.16	186.83	501.45	205.11	262.19	1509	62.668	282.61	798.07	233.15	353.14	694.91	-142.97	453.7	1025.7	407	418.21	715.16	-119.49	155.49	1287.2	52.918	403.02	513.88	-115.41	52.327	82.932	150.72	358.77	1030.5	-90.951	391.42	1421.8	51.042	147.97	1017.7	14.403	347.4	1295.2	325.82	192.2	1413.5	194.08	229.6	616.04	213.52	327.31	1109.7	316.45	320.33	1474.2	-113.56	515.28	24.746	-45.665	353.98	1144.9	386.82	427.97	520.61	16.144	504.29	404.22	-54.757	591.51	969.13	343.73	258.9	705.21	226.45	491.37	310.67	-123.04	660.58	60.678	-133.97	169.1	277.47	123.56	345.1	1452.7	213.1	203.44	513.4	73.896	551	223.78	-59.768	94.218	101.7	74.063	527.21	317.18	-56.097	547.04	83.073	-98.256	742.1	112.17	-83.479	464	1682	22.601	552.02	930.53	399.61	203.4	363.79	134.97	331.83	785.84	-149.9	576.89	115.91	-22.749	469.1	1682.7	98.987	-4.0064	52.454	97.264	702.21	93.071	-60.59	366.52	1033.4	198.5
